<mxfile host="app.diagrams.net" modified="2024-07-25T08:54:01.257Z" agent="Mozilla/5.0 (X11; Linux x86_64) AppleWebKit/537.36 (KHTML, like Gecko) Chrome/126.0.0.0 Safari/537.36" etag="PaqXkG11sGFWJlX5UZz1" version="24.7.1" type="device">
  <diagram name="Page-1" id="CEeZLKcjacY4UeVO37km">
    <mxGraphModel dx="1247" dy="690" grid="1" gridSize="4" guides="1" tooltips="1" connect="1" arrows="1" fold="1" page="1" pageScale="1" pageWidth="850" pageHeight="1100" background="#454545" math="0" shadow="0">
      <root>
        <mxCell id="0" />
        <mxCell id="1" parent="0" />
        <mxCell id="pM8Eaurab6oWhcfFiJKy-24" value="" style="shape=cube;whiteSpace=wrap;html=1;boundedLbl=1;backgroundOutline=1;darkOpacity=0.05;darkOpacity2=0.1;flipH=1;size=256;" vertex="1" parent="1">
          <mxGeometry x="368" y="88" width="264" height="768" as="geometry" />
        </mxCell>
        <mxCell id="pM8Eaurab6oWhcfFiJKy-20" value="" style="shape=cube;whiteSpace=wrap;html=1;boundedLbl=1;backgroundOutline=1;darkOpacity=0.05;darkOpacity2=0.1;flipH=1;size=128;" vertex="1" parent="1">
          <mxGeometry x="440" y="272" width="144" height="384" as="geometry" />
        </mxCell>
        <mxCell id="pM8Eaurab6oWhcfFiJKy-16" value="" style="shape=cube;whiteSpace=wrap;html=1;boundedLbl=1;backgroundOutline=1;darkOpacity=0.05;darkOpacity2=0.1;flipH=1;size=64;" vertex="1" parent="1">
          <mxGeometry x="488" y="368" width="96" height="192" as="geometry" />
        </mxCell>
        <mxCell id="pM8Eaurab6oWhcfFiJKy-9" value="" style="shape=cube;whiteSpace=wrap;html=1;boundedLbl=1;backgroundOutline=1;darkOpacity=0.05;darkOpacity2=0.1;flipH=1;size=32;" vertex="1" parent="1">
          <mxGeometry x="536" y="416" width="96" height="96" as="geometry" />
        </mxCell>
        <mxCell id="pM8Eaurab6oWhcfFiJKy-7" value="" style="shape=cube;whiteSpace=wrap;html=1;boundedLbl=1;backgroundOutline=1;darkOpacity=0.05;darkOpacity2=0.1;flipH=1;size=16;" vertex="1" parent="1">
          <mxGeometry x="608" y="440" width="144" height="48" as="geometry" />
        </mxCell>
      </root>
    </mxGraphModel>
  </diagram>
</mxfile>
